PathFileType	4	(X/Y/Z)	S01_0006_Gait_markers.trc
DataRate	CameraRate	NumFrames	NumMarkers	Units	OrigDataRate	OrigDataStartFrame	OrigNumFrames
250.000000	250.000000	4	54	mm	250.000000	39	314
Frame#	Time	HEAD_ANT			R_HEAD			L_HEAD			C7			R_BACK			L_BACK			STERNUM			R_ACROMION			R_HUM_PROX			R_HUM_ANT			R_HUM_POST			R_ELBOW_LAT			R_ELBOW_MED			R_FOREARM			R_WIRST_LAT			R_WRITS_MED			R_HAND			L_ACROMION			L_HUM_PROX			L_HUM_ANT			L_HUM_POST			L_ELBOW_LAT			L_ELBOW_MED			L_FOREARM			L_WRIST_LAT			L_WIRST_MED			L_HAND			R_ILIAC			SACRUM			L_ILIAC			R_GTROCH			R_THIGH__1			R_THIGH_2			R_THIGH_3			R_THIGH_4			R_SHANK_1			R_SHANK_2			R_SHANK_3			R_SHANK_4			R_HEEL			R_FOOT_LAT			R_FOOT_MED			L_GTROCH			L_THIGH_1			L_THIGH_2			L_THIGH_3			L_THIGH_4			L_SHANK_1			L_SHANK_2			L_SHANK_3			L_SHANK_4			L_HEEL			L_FOOT_LAT			L_FOOT_MED			
		X1	Y1	Z1	X2	Y2	Z2	X3	Y3	Z3	X4	Y4	Z4	X5	Y5	Z5	X6	Y6	Z6	X7	Y7	Z7	X8	Y8	Z8	X9	Y9	Z9	X10	Y10	Z10	X11	Y11	Z11	X12	Y12	Z12	X13	Y13	Z13	X14	Y14	Z14	X15	Y15	Z15	X16	Y16	Z16	X17	Y17	Z17	X18	Y18	Z18	X19	Y19	Z19	X20	Y20	Z20	X21	Y21	Z21	X22	Y22	Z22	X23	Y23	Z23	X24	Y24	Z24	X25	Y25	Z25	X26	Y26	Z26	X27	Y27	Z27	X28	Y28	Z28	X29	Y29	Z29	X30	Y30	Z30	X31	Y31	Z31	X32	Y32	Z32	X33	Y33	Z33	X34	Y34	Z34	X35	Y35	Z35	X36	Y36	Z36	X37	Y37	Z37	X38	Y38	Z38	X39	Y39	Z39	X40	Y40	Z40	X41	Y41	Z41	X42	Y42	Z42	X43	Y43	Z43	X44	Y44	Z44	X45	Y45	Z45	X46	Y46	Z46	X47	Y47	Z47	X48	Y48	Z48	X49	Y49	Z49	X50	Y50	Z50	X51	Y51	Z51	X52	Y52	Z52	X53	Y53	Z53	X54	Y54	Z54	

40	0.156	450.5868225097656	1714.1640625	-287.7533264160152	393.5716857910156	1660.194946289062	-211.7958374023434	390.6138000488281	1668.153686523438	-359.050872802734	254.8563537597656	1493.979125976562	-300.2668762207028	177.6456146240234	1295.50537109375	-250.1508636474607	187.3383941650391	1303.5576171875	-385.7117614746091	431.9166259765625	1331.202392578125	-291.3114929199216	318.2437133789062	1437.55029296875	-124.970649719238	268.1098022460938	1273.881591796875	-48.80075836181612	329.4357604980469	1188.772827148438	-39.68575668334935	207.9693603515625	1189.764770507812	-47.31755065917942	254.6220245361328	1083.722412109375	-39.10219192504859	248.0525970458984	1081.735961914062	-119.4273223876951	348.483642578125	899.3224487304688	-22.57219886779765	392.9939270019531	833.4107055664062	-55.41291809082013	319.5966186523438	810.9813842773438	-33.7838821411131	383.4896850585938	744.6631469726562	-2.043794393539264	342.1887817382812	1456.016723632812	-463.6026611328122	328.8677368164062	1291.750854492188	-562.6926879882809	393.6897277832031	1213.335571289063	-558.4325561523435	273.8316955566406	1212.230346679688	-590.4549560546873	337.640625	1109.429809570313	-596.6564941406248	284.439453125	1101.016723632813	-541.0961303710935	456.8659057617188	943.6228637695314	-576.7728881835935	492.9881591796875	888.4371337890626	-526.4488525390623	451.252197265625	858.7426757812501	-587.6529541015623	534.0599975585938	813.8327026367189	-570.3048706054685	330.9169921875	1047.879638671875	-142.711975097656	203.6412506103516	1019.86767578125	-313.5507507324216	332.1578063964844	1040.99755859375	-487.6716308593748	306.1796264648438	903.2505493164062	-127.630546569824	436.5725402832031	641.81298828125	-159.2549438476561	484.0133056640625	675.6264038085938	-164.461471557617	518.0382080078125	580.82080078125	-202.0287933349608	457.3903198242188	564.5579223632812	-180.9620513916014	481.7710266113281	345.9201049804688	-181.2453002929687	535.2193603515625	329.7591552734376	-204.7760620117187	535.076171875	245.1609039306641	-223.175552368164	473.9769897460938	246.0127258300782	-202.2857208251953	435.5722961425781	39.35192108154303	-284.2716674804688	603.0975952148438	21.33491897583012	-210.2541809082031	649.8472900390625	33.80173492431648	-311.8587951660156	276.3670349121094	925.1726074218751	-493.7683410644529	311.6953430175781	633.7330932617189	-496.2976074218749	261.8951110839844	664.9082031250001	-504.7294006347655	230.8047485351562	564.4404907226564	-483.0736389160155	293.9923400878906	554.7546386718751	-481.8536376953124	95.0333251953125	344.3045959472657	-473.2170104980468	40.48983764648438	370.8686828613282	-468.7201232910156	-21.84392738342285	311.8453063964845	-450.0156555175781	27.21102142333984	269.8574523925782	-449.8066406249999	-166.9719543457031	225.9495849609376	-375.2466735839843	-122.0480575561523	51.34550094604501	-423.8521728515625	-92.35053253173828	45.37606048583991	-326.4910583496094	
41	0.16	456.5906982421875	1714.736328125	-287.4225463867184	399.6871032714844	1660.809814453125	-211.3119201660153	396.3343505859375	1668.751708984375	-358.4803466796871	260.6034851074219	1494.452392578125	-299.7406311035153	183.9014892578125	1295.8828125	-249.733215332031	193.3397064208984	1304.065307617188	-385.4435119628903	437.9512939453125	1331.90869140625	-290.9157409667966	324.4200744628906	1438.251342773438	-124.6568374633786	274.5731201171875	1274.521484375	-48.25471496582003	335.8743286132812	1189.453979492188	-39.27521514892552	214.464599609375	1190.324951171875	-46.7503929138181	261.1934814453125	1084.368408203125	-38.60624313354468	248.9908599853516	1083.246948242188	-121.978218078613	355.44873046875	900.052490234375	-22.3908805847166	399.9587097167969	834.2183837890625	-55.44515609741192	326.6555480957031	811.826171875	-33.6066589355467	390.695556640625	745.4440307617188	-1.934924960136248	347.8970642089844	1456.87646484375	-463.1111450195309	334.5470886230469	1292.6201171875	-562.5301513671872	399.3985595703125	1214.157348632813	-557.9818115234373	280.0132141113281	1213.008178710938	-590.242736816406	342.8403930664062	1110.27197265625	-596.3275756835935	289.8318481445312	1102.132080078125	-540.777160644531	461.4334716796875	943.8261718750001	-576.8837280273435	497.430908203125	888.3060913085939	-526.7499999999998	455.3739013671875	859.1135253906251	-587.9837646484373	537.8656005859375	813.4833374023439	-570.6629638671873	337.4866943359375	1048.68994140625	-142.784469604492	209.7993469238281	1020.330200195313	-313.2223510742185	338.8842468261719	1041.232543945312	-487.101867675781	311.6893615722656	903.913330078125	-127.2590942382811	441.0986633300781	642.1510620117188	-159.0431213378905	488.7795104980469	675.1961669921875	-164.018341064453	522.2959594726562	580.6015625	-201.623092651367	461.51611328125	564.5880737304688	-180.8462524414061	484.2356567382812	345.8701782226563	-181.412368774414	537.7088623046875	329.2939147949219	-204.9209594726562	536.9248046875	244.9439239501954	-223.1412811279296	475.7221374511719	246.0848999023438	-202.4498748779296	435.7018737792969	39.49213790893561	-284.3741760253906	603.2117309570312	21.15981483459477	-209.9160003662109	650.3875732421875	33.35255050659187	-311.9440002441406	282.8644409179688	925.3360595703126	-493.4654541015623	320.6629638671875	633.6817016601564	-497.049835205078	270.5106811523438	664.4083862304689	-504.9360046386717	240.6427764892578	563.4309692382814	-483.7456970214843	303.9829711914062	554.5869750976564	-483.0130615234374	104.6435470581055	344.5904541015626	-473.9293823242187	50.46390151977539	371.8179016113282	-469.6992187499999	-12.47058963775635	313.5415954589845	-450.7378845214843	36.0009880065918	271.0950317382814	-450.4517517089843	-157.7195129394531	230.5998535156251	-376.5680847167968	-116.3707122802734	55.12960052490244	-425.14306640625	-88.19318389892578	48.03150939941413	-327.0835571289062	
42	0.164	462.4725036621094	1715.33349609375	-286.9280090332027	405.6810302734375	1661.456420898438	-210.8165893554684	402.1487731933594	1669.324462890625	-357.9964599609371	266.4341430664062	1494.86328125	-299.2881164550778	190.2061920166016	1296.4287109375	-249.4152832031247	199.4185943603516	1304.877319335938	-385.2594909667966	443.98583984375	1332.6953125	-290.6152038574216	330.4501647949219	1438.981811523438	-124.2142868041989	280.9876403808594	1275.150512695312	-47.83548736572237	342.2650756835938	1190.07421875	-39.02727890014622	220.9771270751953	1190.860229492188	-46.27598571777317	268.1873168945312	1084.703125	-38.00353622436499	255.2289428710938	1083.936889648438	-121.4196319580076	362.3789367675781	900.9398193359375	-22.12566566467265	407.04931640625	835.2131958007812	-55.01981735229474	333.8127136230469	812.4735107421875	-33.33542633056623	397.9535522460938	746.273681640625	-1.950035095214678	353.8154602050781	1457.6357421875	-462.6552734374997	340.2699584960938	1293.466186523438	-562.2843627929684	404.8150024414062	1214.813720703125	-557.5641479492185	285.0953979492188	1214.058959960938	-589.7067260742185	348.5244750976562	1111.094482421875	-595.9193725585935	295.2421875	1103.20263671875	-540.5220947265623	466.1446228027344	944.1353149414064	-577.023254394531	501.6768188476562	888.2422485351564	-526.7070312499998	459.5979614257812	859.4761352539064	-588.192932128906	541.7095947265625	813.2864990234376	-571.1553955078123	344.106689453125	1049.42724609375	-142.7317810058591	215.8863983154297	1020.851684570313	-313.0527648925779	345.2463684082031	1041.719970703125	-486.5599975585935	317.6672668457031	904.5723876953125	-126.7436752319334	445.2671508789062	642.02685546875	-159.0513458251952	493.2789001464844	675.2462158203125	-163.6023864746092	526.39794921875	580.176025390625	-201.2616424560545	465.4494934082031	564.4224853515625	-180.8618774414061	486.5775451660156	345.8129577636719	-181.5729522705077	539.9816284179688	328.8047485351563	-204.5640563964843	538.5904541015625	244.5118408203126	-223.0860900878906	477.4203491210938	246.0310058593751	-202.782241821289	435.8399658203125	39.65297317504889	-284.5455932617188	603.3035888671875	20.94167709350591	-209.5915832519531	650.8605346679688	33.03215408325202	-312.0352172851562	289.421630859375	925.1711425781251	-492.9718627929685	329.8658752441406	633.9121704101564	-497.8261718749999	279.2277526855469	663.4907226562501	-505.5512390136717	250.5253601074219	562.6715087890626	-484.4195556640624	313.942626953125	554.2474365234376	-483.9313659667968	114.4976959228516	344.9560852050782	-474.7539978027343	60.79699325561523	372.8351440429689	-470.4766540527343	-2.60039496421814	315.2502441406251	-451.2494812011718	44.97701644897461	272.4058532714845	-451.2113647460937	-148.5475006103516	235.0564270019532	-377.6581420898437	-111.3613586425781	58.22836303710947	-425.6302490234375	-83.69408416748047	50.95195770263679	-327.9338684082031	
43	0.168	468.3563537597656	1716.119140625	-286.5719909667965	411.5468139648438	1662.11474609375	-210.589447021484	408.1199951171875	1670.121215820312	-357.5851440429684	272.2063293457031	1495.313842773438	-298.7960815429684	196.3698425292969	1296.931274414062	-249.1291656494138	205.4961090087891	1305.560668945312	-384.9613647460935	449.9861145019531	1333.520141601562	-290.3859558105466	336.4625854492188	1439.650146484375	-123.9312667846677	287.2957763671875	1275.829711914062	-47.31027603149386	348.8080444335938	1190.873657226562	-38.61540985107396	227.4315948486328	1191.543090820312	-45.74268722534153	274.7294616699219	1085.14404296875	-37.46090698242163	266.8026428222656	1083.610229492188	-118.0734786987302	369.3234558105469	901.6748046875	-22.01226806640605	414.1067810058594	836.1047973632812	-54.98558425903302	340.9849243164062	813.2750244140625	-33.18619155883771	405.29931640625	747.1106567382812	-1.876101732253862	359.6911010742188	1458.526000976562	-462.1443176269528	346.0930480957031	1294.404663085938	-561.8808593749997	410.5380554199219	1215.552856445313	-557.2731323242185	291.125244140625	1215.067749023438	-589.535949707031	353.758544921875	1111.964233398438	-595.5922241210935	300.6068725585938	1104.213134765625	-540.2499999999998	470.6529846191406	944.4699096679689	-576.8992919921873	506.0717468261719	888.0460815429689	-526.736389160156	463.751220703125	859.8002319335939	-588.6476440429685	545.4956665039062	812.8596191406251	-571.4970092773435	350.5828247070312	1050.107177734375	-142.8174896240232	221.8705749511719	1021.526733398438	-312.8946228027341	351.6212158203125	1042.510131835938	-486.0548706054685	323.6936340332031	905.2188110351562	-126.4586029052732	449.4121398925781	641.978515625	-158.7540740966795	497.2461242675781	674.9266967773438	-163.5551605224608	530.3268432617188	579.9298706054688	-200.6966400146483	469.1308288574219	564.4622192382812	-180.7494506835936	488.7142333984375	345.7612304687501	-181.5261230468749	542.0655517578125	328.2843933105469	-204.341827392578	540.16943359375	244.0147552490235	-222.8547363281249	478.8774108886719	246.0808258056641	-202.9186553955078	435.9710388183594	39.79586410522467	-284.6513366699219	603.3490600585938	20.78564834594731	-209.3472442626953	651.303466796875	32.69342041015632	-312.1280212402344	295.7092895507812	925.2025756835939	-492.4117736816404	338.9111938476562	633.9945068359376	-498.6303100585936	287.9917297363281	663.1704101562501	-505.8402099609373	260.370361328125	561.8796997070314	-484.9965820312499	323.8946533203125	554.0679321289064	-484.776397705078	124.5400543212891	345.2062377929689	-475.6175537109374	71.05402374267578	373.7933959960939	-471.4245300292968	6.696204662322998	317.3511047363282	-452.6668701171874	54.09585571289062	273.4931945800782	-451.7647094726562	-137.7218475341797	239.3607177734376	-378.4819030761718	-105.6391754150391	61.22347259521494	-426.3408508300781	-78.39089965820312	53.33340072631843	-330.1675109863281	
